<svg width="40" height="38" viewBox="0 0 40 38" fill="none" xmlns="http://www.w3.org/2000/svg">
<path d="M30.3608 25.3514L30.5243 25.257C31.3072 24.8046 32.2594 24.6962 33.1945 24.8509C34.3176 25.0367 35.5243 25.62 36.5745 26.6382C37.6467 27.6778 38.324 28.9521 38.5055 30.1767C38.6864 31.3968 38.3693 32.5315 37.5233 33.2919C37.1152 33.6587 36.6251 33.9004 36.0946 34.0294C35.7489 34.1134 35.3882 34.1492 35.0237 34.1416L34.7556 34.136L34.7532 34.3102C34.7481 34.6829 34.6926 35.0397 34.5857 35.3711C34.4207 35.8824 34.1342 36.3381 33.7239 36.7069L34.2203 37.0067L33.7239 36.7069C32.8739 37.4709 31.6888 37.6848 30.5295 37.493L30.5295 37.493C29.4064 37.3072 28.1997 36.7239 27.1494 35.7056L26.7464 35.7715L27.1494 35.7056C26.0772 34.6661 25.4 33.3918 25.2185 32.1673L24.6759 32.0048L25.2185 32.1673C25.0725 31.183 25.2506 30.2524 25.7716 29.5295L25.8693 29.394L25.6566 29.1879L9.64407 13.6627L9.15417 13.1877L8.77568 13.4064C7.99284 13.8587 7.04064 13.9672 6.10559 13.8125L6.10557 13.8125C4.98248 13.6267 3.77581 13.0434 2.72555 12.0251C1.65329 10.9855 0.976081 9.71123 0.794548 8.48668L0.251975 8.32417L0.794548 8.48667C0.613662 7.26657 0.930755 6.13188 1.77679 5.37144C2.18488 5.00462 2.67493 4.76296 3.20547 4.63397C3.5511 4.54993 3.9118 4.51422 4.27639 4.52177L4.54446 4.52732L4.54686 4.35321C4.55199 3.98042 4.60743 3.62365 4.71438 3.29223C4.87939 2.781 5.16587 2.32523 5.57612 1.9565C6.42611 1.19251 7.6112 0.978505 8.77058 1.17033L8.60181 0.819367L8.77059 1.17033C9.89367 1.35615 11.1003 1.93943 12.1506 2.95771L12.5536 2.89187L12.1506 2.95772C13.2228 3.99731 13.9 5.27156 14.0816 6.49612C14.2275 7.48042 14.0495 8.41099 13.5284 9.13387L13.4308 9.26932L13.6434 9.47549L29.6559 25.0007L29.8129 25.1529L30.0463 25.2374L30.0463 25.2375L30.3608 25.3514ZM36.3764 27.4122C35.4707 26.5342 34.3176 25.9325 33.1924 25.7222L33.1873 25.7202L33.0872 25.7036C31.9652 25.518 30.989 25.7436 30.3398 26.3271L30.1777 26.4727L30.0708 26.3691L29.6678 26.4349L30.0708 26.369L12.8304 9.65337L12.4046 9.24048L12.7596 8.92136C13.4124 8.33459 13.6481 7.46992 13.5112 6.54707C13.3751 5.6289 12.8642 4.61568 11.9525 3.73174L11.5494 3.79758L11.9525 3.73173C11.0186 2.82626 9.82156 2.21473 8.66336 2.0231C7.54134 1.83746 6.5651 2.06309 5.91593 2.64659C5.60037 2.93021 5.38314 3.27969 5.25768 3.66836L5.79521 3.90567L5.25767 3.66838C5.126 4.07643 5.09364 4.52442 5.15729 4.9858L5.70016 5.15037L5.15729 4.98581L5.22735 5.49354L4.8192 5.4297C4.25586 5.34156 3.73036 5.35814 3.26905 5.4703C2.82468 5.57835 2.4339 5.77636 2.11661 6.06152L2.61297 6.36134L2.1166 6.06153C1.46381 6.6483 1.22816 7.51299 1.36496 8.4358L1.90753 8.59831L1.36496 8.4358C1.5011 9.35399 2.01208 10.3672 2.92375 11.2511L3.3268 11.1853L2.92376 11.2512C3.85767 12.1566 5.05468 12.7682 6.21288 12.9598C7.33493 13.1454 8.31111 12.9198 8.96027 12.3363L9.12231 12.1907L9.22923 12.2943L9.63228 12.2285L9.22924 12.2944L26.4697 29.0101L26.8727 28.9442L26.4697 29.0101L26.8955 29.4229L26.5405 29.7421C25.8877 30.3289 25.6521 31.1935 25.7889 32.1164C25.925 33.0345 26.4359 34.0477 27.3477 34.9317C28.2816 35.8371 29.4786 36.4487 30.6368 36.6403C31.7588 36.826 32.735 36.6003 33.3842 36.0168C33.6998 35.7332 33.917 35.3837 34.0425 34.9951L34.0425 34.995C34.1741 34.587 34.2065 34.139 34.1428 33.6776L34.0728 33.1699L34.4809 33.2337C35.0443 33.3219 35.5698 33.3053 36.0311 33.1931C36.4755 33.0851 36.8662 32.8871 37.1835 32.6019C37.8364 32.0151 38.072 31.1504 37.9352 30.2276C37.7991 29.3094 37.2881 28.2962 36.3764 27.4123L35.9733 27.4781L36.3764 27.4122ZM30.6982 37.8439L30.6982 37.844L30.6982 37.8439Z" stroke="#EE7333" stroke-opacity="0.25"/>
</svg>
